<?xml version="1.0" encoding="utf-8"?>
<!-- Generator: Adobe Illustrator 23.1.0, SVG Export Plug-In . SVG Version: 6.00 Build 0)  -->
<svg version="1.1" id="Layer_1" xmlns="http://www.w3.org/2000/svg" xmlns:xlink="http://www.w3.org/1999/xlink" x="0px" y="0px"
	 viewBox="0 0 14.9 18.9" style="enable-background:new 0 0 14.9 18.9;" xml:space="preserve">
<style type="text/css">
	.st0{clip-path:url(#SVGID_2_);fill:#979797;}
	.st1{clip-path:url(#SVGID_4_);fill:#979797;}
</style>
<g>
	<defs>
		<rect id="SVGID_1_" y="0" width="14.9" height="15.4"/>
	</defs>
	<clipPath id="SVGID_2_">
		<use xlink:href="#SVGID_1_"  style="overflow:visible;"/>
	</clipPath>
	<path id="Fill_1" class="st0" d="M13.7,9.7V7.8c0.1-2.9-2-5.5-4.8-6V1.1C8.9,0.5,8.4,0,7.8,0H7.1C6.5,0,6,0.5,6,1.1c0,0,0,0,0,0
		v0.7c-2.9,0.5-4.9,3.1-4.8,6v1.9c0,0.9-0.3,1.9-0.9,2.6C0.1,12.6,0,13,0,13.4v0.2c0,1.1,0.9,1.9,1.9,1.9H13c1.1,0,1.9-0.9,1.9-1.9
		v-0.2c0-0.4-0.1-0.8-0.4-1.1C14,11.5,13.7,10.6,13.7,9.7"/>
</g>
<g>
	<defs>
		<rect id="SVGID_3_" x="5.4" y="16.9" width="4.1" height="2"/>
	</defs>
	<clipPath id="SVGID_4_">
		<use xlink:href="#SVGID_3_"  style="overflow:visible;"/>
	</clipPath>
	<path id="Fill_4" class="st1" d="M7.5,18.9c1.1,0,2-0.9,2-2H5.4C5.4,18,6.3,18.9,7.5,18.9C7.5,18.9,7.5,18.9,7.5,18.9"/>
</g>
</svg>
