<?xml version="1.0" encoding="utf-8"?>
<!-- Generator: Adobe Illustrator 23.1.0, SVG Export Plug-In . SVG Version: 6.00 Build 0)  -->
<svg version="1.1" id="Layer_1" xmlns="http://www.w3.org/2000/svg" xmlns:xlink="http://www.w3.org/1999/xlink" x="0px" y="0px"
	 viewBox="0 0 40 40" enable-background="new 0 0 40 40" xml:space="preserve">
<title>sun</title>
<desc>Created with Sketch.</desc>
<g id="Page-1">
	<g id="wws3_Incite2050_02_Medical_Advancements_01" transform="translate(-805.000000, -1133.000000)">
		<g id="Dial" transform="translate(605.000000, 957.000000)">
			<g id="sun" transform="translate(200.000000, 175.000000)">
				<g id="minimalizm-gradient-background">
					<g transform="translate(0.000000, 0.500000)">
						<g id="Mask">
							<path fill-rule="evenodd" clip-rule="evenodd" d="M26.4,12.8c-3-4-5.9-5.6-6-5.7c-0.3-0.2-0.6-0.1-0.9,0.1
								c-0.2,0.2-0.3,0.5-0.3,0.9c1.8,6.1,0.6,9.7-1,11.1c-0.8,0.7-1.8,0.8-2.6,0.4c-1.6-0.9-0.8-3.6-0.8-3.6c0.1-0.3,0-0.7-0.3-0.9
								c-0.3-0.2-0.7-0.2-0.9,0c-1.9,1.6-4.1,5.1-3.6,9.8c0.5,5.3,4.7,9.1,10,9.1c5.5,0,9.7-4.4,9.9-10.2C30.1,20,28.8,16,26.4,12.8
								"/>
						</g>
					</g>
				</g>
			</g>
		</g>
	</g>
</g>
</svg>
