<?xml version="1.0" encoding="UTF-8"?>
<svg width="76px" height="77px" viewBox="0 0 76 77" version="1.1" xmlns="http://www.w3.org/2000/svg" xmlns:xlink="http://www.w3.org/1999/xlink">
    <!-- Generator: Sketch 52.6 (67491) - http://www.bohemiancoding.com/sketch -->
    <title>Loading Bar</title>
    <desc>Created with Sketch.</desc>
    <defs>
        <linearGradient x1="50%" y1="0.440299855%" x2="50%" y2="100%" id="linearGradient-1">
            <stop stop-color="#F9F9F9" offset="0%"></stop>
            <stop stop-color="#000000" offset="100%"></stop>
        </linearGradient>
        <path d="M38.130851,0 L38.130851,5.00881486 C56.2615372,5.08019047 70.9913502,19.8524377 70.9913502,37.9956173 C70.9913502,56.1901372 56.19079,70.9911851 38.0025043,70.9911851 C19.80921,70.9911851 5.00864981,56.1901372 5.00864981,37.9956173 C5.00864981,19.8599509 19.7259412,5.0927125 37.8528709,5.00944096 L37.8528709,0.000626101857 C16.934245,0.0838976488 0,17.0612756 0,37.9956173 C0,58.9825515 17.0168877,76 38.0025043,76 C58.988747,76 76,58.9825515 76,37.9956173 C76,17.0531363 59.0594942,0.0707495098 38.130851,0" id="path-2"></path>
    </defs>
    <g id="Page-1" stroke="none" stroke-width="1" fill="none" fill-rule="evenodd">
        <g id="wws3_Incite2050_07_MyIncite_3.2_Scanning" transform="translate(-682.000000, -412.000000)">
            <g id="Group-3" transform="translate(-348.000000, -618.000000)">
                <g id="Group-2" transform="translate(905.000000, 1015.500000)">
                    <g id="Loading" transform="translate(125.000000, 15.000000)">
                        <g id="Loading-Bar">
                            <mask id="mask-3" fill="white">
                                <use xlink:href="#path-2"></use>
                            </mask>
                            <use id="Mask" fill="url(#linearGradient-1)" xlink:href="#path-2"></use>
                            <polygon id="Rectangle" fill="#000000" fill-rule="nonzero" mask="url(#mask-3)" points="38 -2 82 -2 82 84 38 84"></polygon>
                        </g>
                    </g>
                </g>
            </g>
        </g>
    </g>
</svg>