<?xml version="1.0" encoding="UTF-8"?>
<svg width="76px" height="77px" viewBox="0 0 76 77" version="1.1" xmlns="http://www.w3.org/2000/svg" xmlns:xlink="http://www.w3.org/1999/xlink">
    <!-- Generator: Sketch 52.6 (67491) - http://www.bohemiancoding.com/sketch -->
    <title>Loading</title>
    <desc>Created with Sketch.</desc>
    <defs>
        <path d="M38.130851,0 L38.130851,5.00881486 C56.2615372,5.08019047 70.9913502,19.8524377 70.9913502,37.9956173 C70.9913502,56.1901372 56.19079,70.9911851 38.0025043,70.9911851 C19.80921,70.9911851 5.00864981,56.1901372 5.00864981,37.9956173 C5.00864981,19.8599509 19.7259412,5.0927125 37.8528709,5.00944096 L37.8528709,0.000626101857 C16.934245,0.0838976488 0,17.0612756 0,37.9956173 C0,58.9825515 17.0168877,76 38.0025043,76 C58.988747,76 76,58.9825515 76,37.9956173 C76,17.0531363 59.0594942,0.0707495098 38.130851,0" id="path-1"></path>
    </defs>
    <g id="Page-1" stroke="none" stroke-width="1" fill="none" fill-rule="evenodd">
        <g id="wws3_Incite2050_07_MyIncite_3.2_Confirmed" transform="translate(-682.000000, -412.000000)">
            <g id="Group-3" transform="translate(-348.000000, -618.000000)">
                <g id="Group-2" transform="translate(905.000000, 1015.500000)">
                    <g id="Loading" transform="translate(125.000000, 15.000000)">
                        <g id="Loading-Bar">
                            <mask id="mask-2" fill="white">
                                <use xlink:href="#path-1"></use>
                            </mask>
                            <use id="Mask" fill="#000000" xlink:href="#path-1"></use>
                        </g>
                        <g id="Group-3" transform="translate(36.000000, 28.000000)" fill="#000000">
                            <path d="M0.170639288,19.8762949 C3.6358284,20.1505651 3.96760182,20.0429779 3.9915393,18.7850825 C3.9934543,18.6822312 3.99177867,18.5793798 3.99177867,18.4765285 C3.99177867,12.8526511 3.99201805,7.22887659 3.99177867,1.6051021 C3.99177867,1.36501272 4.01475865,1.12440857 3.9838793,0.885039874 C3.89124127,0.171360818 3.5266735,0.0108550985 2.02770872,0.000559670673 C0.463155251,-0.0102505285 0.120131212,0.130796833 0.0121731929,0.839122266 C-0.00865241169,0.975742593 0.00355570136,1.11339246 0.00355570136,1.25052756 C0.00331632659,7.11439143 0.000683204169,12.9781523 0.0102581948,18.8420162 C0.0107369443,19.1774412 0.111753095,19.5128663 0.170639288,19.8762949 Z" id="Fill-1"></path>
                        </g>
                    </g>
                </g>
            </g>
        </g>
    </g>
</svg>