<?xml version="1.0" encoding="UTF-8"?>
<svg width="100px" height="21px" viewBox="0 0 100 21" version="1.1" xmlns="http://www.w3.org/2000/svg" xmlns:xlink="http://www.w3.org/1999/xlink">
    <!-- Generator: Sketch 52.6 (67491) - http://www.bohemiancoding.com/sketch -->
    <title>Logo</title>
    <desc>Created with Sketch.</desc>
    <defs>
        <polygon id="path-1" points="4.86023035e-06 0.0700328911 99.9997881 0.0700328911 99.9997881 20.7626874 4.86023035e-06 20.7626874"></polygon>
        <polygon id="path-3" points="0.0318169385 0.0700542609 16.3440769 0.0700542609 16.3440769 20.7627119 0.0318169385 20.7627119"></polygon>
        <polygon id="path-5" points="0.0923404184 0.00407993362 12.7116525 0.00407993362 12.7116525 20.6018229 0.0923404184 20.6018229"></polygon>
        <polygon id="path-7" points="0 0.101404882 1.77014248 0.101404882 1.77014248 20.6799928 0 20.6799928"></polygon>
    </defs>
    <g id="Page-1" stroke="none" stroke-width="1" fill="none" fill-rule="evenodd">
        <g id="wws3_Incite2050_00_HomePage_0.0" transform="translate(-748.000000, -437.000000)">
            <g id="H1" transform="translate(593.000000, 432.000000)">
                <g id="Logo" transform="translate(155.000000, 5.000000)">
                    <g id="Group-3" transform="translate(0.000000, 0.035911)">
                        <mask id="mask-2" fill="white">
                            <use xlink:href="#path-1"></use>
                        </mask>
                        <g id="Clip-2"></g>
                        <path d="M58.1414089,10.4904979 C58.1414089,13.3857309 58.141303,16.280964 58.1415148,19.176197 C58.1415148,19.4586123 58.1457521,19.7410275 58.1450106,20.0235487 C58.1440572,20.4473835 58.3402436,20.660625 58.7758369,20.7038453 C59.6059216,20.7860487 59.8648199,20.5917691 59.8658792,19.7279979 C59.8735064,13.513803 59.8697987,7.29971398 59.8695869,1.085625 C59.8695869,1.05034958 59.8708581,1.01486229 59.8684216,0.979692797 C59.8203284,0.296324153 59.6146081,0.102150424 58.9557097,0.117722458 C58.2860064,0.133400424 58.1464936,0.293887712 58.1444809,1.16931144 C58.1373835,4.2764089 58.1416208,7.38340042 58.1414089,10.4904979 Z M0.0755190678,20.5526801 C1.60899364,20.8348835 1.75581568,20.7241843 1.7664089,19.4299047 C1.76725636,19.3240784 1.76651483,19.2182521 1.76651483,19.1124258 C1.76651483,13.3258792 1.76662076,7.53943856 1.76651483,1.75299788 C1.76651483,1.50596398 1.77668432,1.25840042 1.76301907,1.01210805 C1.72202331,0.277786017 1.56068856,0.112637712 0.897341102,0.102044492 C0.20496822,0.0909216102 0.0531673729,0.236048729 0.00539194915,0.964862288 C-0.00382415254,1.10543432 0.00157838983,1.24706568 0.00157838983,1.38816737 C0.00147245763,7.42164195 0.00030720339,13.4550106 0.00454449153,19.4884852 C0.00475635593,19.8336123 0.0494597458,20.1787394 0.0755190678,20.5526801 Z M74.4892903,1.8260911 C75.0601589,1.8260911 75.4460699,1.82619703 75.8319809,1.8260911 C77.2441631,1.82556144 78.6565572,1.84028602 80.0684216,1.81835805 C80.834947,1.80638771 81.1982945,1.20193856 80.891197,0.530222458 C80.6851589,0.0797987288 80.2846292,0.115497881 79.8951165,0.115497881 C77.2826165,0.115391949 74.6702225,0.115074153 72.0577225,0.115180085 C70.4336758,0.115286017 68.8096292,0.103103814 67.1857945,0.122489407 C66.4951165,0.130752119 66.3020021,0.363061441 66.3199047,1.02047669 C66.336536,1.62662076 66.4997775,1.81020127 67.1666208,1.81867585 C68.6491419,1.83753178 70.1320869,1.82248941 71.6148199,1.82842161 C71.9583581,1.82990466 72.3016843,1.86051907 72.760053,1.88350636 L72.760053,3.08149364 C72.760053,7.03551907 72.759947,10.9895445 72.760053,14.9435699 C72.7601589,16.5675106 72.749036,18.1916631 72.766303,19.8153919 C72.7743538,20.5695233 72.9255191,20.6990784 73.6204343,20.7023623 C74.3183157,20.7057521 74.4531674,20.5732309 74.4866419,19.8296928 C74.4976589,19.5830826 74.4891843,19.3355191 74.4891843,19.0883792 C74.4892903,13.757553 74.4892903,8.42662076 74.4892903,3.09568856 L74.4892903,1.8260911 Z M43.4880191,20.7060699 C45.6378072,20.7440996 47.5767903,20.2007733 49.2870657,18.9501377 C49.7379131,18.6204767 50.1265784,18.2003496 50.5175742,17.7964301 C50.7747775,17.5307521 50.7401377,17.2362606 50.5065572,16.941875 C50.0080403,16.313803 49.644375,16.273125 49.0528496,16.8906038 C45.6309216,20.4624258 37.8109004,19.9426165 35.7095233,13.3545869 C35.3298623,12.1645445 35.1854767,10.9384852 35.2963877,9.69801907 C35.5871716,6.44346398 36.9915148,3.83742585 40.0701165,2.5040572 C43.1076165,1.18848517 46.0571928,1.46920551 48.6942691,3.64823093 C49.2227648,4.08488347 49.4650318,4.08424788 49.8679979,3.67513771 C50.3332521,3.20278602 50.3545445,2.89261653 49.8507309,2.42598517 C49.4395021,2.0451589 48.9910911,1.68827331 48.511536,1.40003178 C44.6168326,-0.942552966 38.0954343,-0.35378178 35.0575106,4.74007415 C33.861536,6.74547669 33.4361123,8.93435381 33.5905614,11.2415572 C33.9996716,17.3529979 38.6551801,20.838697 43.4880191,20.7060699 Z M89.1079343,1.8260911 L90.2779555,1.8260911 C92.8898199,1.8260911 95.5016843,1.82630297 98.1134428,1.82587924 C98.3604767,1.82577331 98.6075106,1.8201589 98.8545445,1.82079449 C99.345964,1.82195975 99.5368538,1.5385911 99.5687394,1.08774364 C99.6166208,0.40871822 99.3836758,0.124290254 98.6545445,0.121641949 C95.1957521,0.109353814 91.7368538,0.116027542 88.2779555,0.117192797 C88.172447,0.117192797 88.0339936,0.0892266949 87.9676801,0.143675847 C87.7679979,0.307447034 87.5085699,0.476514831 87.4355826,0.697383475 C87.3406674,0.985307203 87.3972352,1.32492585 87.3971292,1.64229873 C87.3960699,7.5010911 87.3963877,13.3600953 87.3963877,19.2189936 C87.3963877,19.3249258 87.3955403,19.4307521 87.3965996,19.5366843 C87.4086758,20.6712182 87.4326165,20.7017267 88.6093114,20.7034216 C91.6446928,20.7077648 94.6800742,20.7051165 97.7153496,20.7049047 C98.2095233,20.7049047 98.7041208,20.6893326 99.197553,20.7067055 C99.7235064,20.7252436 99.9819809,20.4989725 99.9985064,19.9669809 C100.017468,19.3529979 99.8338877,19.0885911 99.2686335,19.0223835 C99.0246716,18.9937818 98.7752013,19.0108369 98.5281674,19.0108369 C95.7752013,19.0103072 93.0221292,19.0127436 90.2691631,19.007553 C89.8997775,19.0070233 89.5303919,18.9688877 89.1030614,18.945053 C89.1316631,16.1562818 89.0654555,13.4940996 89.1458581,10.7179343 L98.7558157,10.7179343 C98.8357945,10.4446292 98.9156674,10.2810699 98.9275318,10.1128496 C98.9845233,9.30490466 98.800625,9.09929025 98.0062394,9.05628178 C97.7951165,9.0448411 97.5828284,9.05310381 97.3710699,9.05299788 C95.0063453,9.05289195 92.6416208,9.05543432 90.2766843,9.05003178 C89.9065572,9.04929025 89.5364301,9.01231992 89.1079343,8.9889089 L89.1079343,7.71486229 L89.1079343,1.8260911 Z M12.2904555,3.52376059 C12.3757309,3.51380297 12.4611123,3.50384534 12.5464936,3.49378178 C12.6774258,3.65744703 12.8154555,3.81602754 12.9382309,3.98551907 C15.1541208,7.04240466 17.3679979,10.1007733 19.5825106,13.1586123 C21.2382309,15.444947 22.8919386,17.732553 24.5513665,20.0160275 C25.0211758,20.6624258 25.6979767,20.9095657 26.3691631,20.6640148 C27.0215996,20.4253496 26.7920445,19.8383792 26.7929979,19.3857309 C26.8064513,13.3858369 26.8021081,7.3859428 26.8016843,1.38615466 C26.8016843,1.17439619 26.8041208,0.962319915 26.7946928,0.750985169 C26.7757309,0.322807203 26.5361123,0.138697034 26.1186335,0.101197034 C25.3453284,0.0318114407 25.1087818,0.225773305 25.0754131,1.02047669 C25.0650318,1.26708686 25.0728708,1.51454449 25.0728708,1.76157839 C25.0727648,6.59674788 25.0732945,11.4320233 25.0717055,16.2671928 C25.0715996,16.6295869 25.0565572,16.9919809 25.0485064,17.354375 C24.6346292,17.107553 24.4157733,16.838697 24.2121716,16.5587182 C20.4764725,11.4220657 16.7426801,6.28414195 13.0081462,1.14664195 C12.8421504,0.918358051 12.686536,0.680858051 12.5031674,0.467298729 C12.2087818,0.124184322 11.3938453,-0.0368326271 10.9442691,0.146853814 C10.4806038,0.336366525 10.5329343,0.750349576 10.5257309,1.13604873 C10.5238242,1.241875 10.5250953,1.3478072 10.5250953,1.45363347 C10.5250953,7.41825212 10.5248835,13.3829767 10.5260487,19.3474894 C10.5260487,19.6294809 10.4955403,19.9225953 10.5621716,20.1898623 C10.6059216,20.3651801 10.7678919,20.576303 10.9306038,20.6456886 C11.688125,20.9689936 12.2440572,20.6033157 12.2862182,19.782447 C12.300625,19.5007733 12.2903496,19.2178284 12.2903496,18.9355191 C12.2904555,14.1707945 12.2904555,9.40628178 12.2904555,4.6415572 L12.2904555,3.52376059 Z" id="Fill-1" fill="#171617" mask="url(#mask-2)"></path>
                    </g>
                    <g id="Group-6" transform="translate(10.487288, 0.035911)">
                        <mask id="mask-4" fill="white">
                            <use xlink:href="#path-3"></use>
                        </mask>
                        <g id="Clip-5"></g>
                        <path d="M1.80310381,3.52380297 L1.80310381,4.64159958 C1.80310381,9.40621822 1.80310381,14.1708369 1.80299788,18.9354555 C1.80299788,19.2177648 1.81337924,19.5007097 1.79886653,19.7823835 C1.75681144,20.6032521 1.20087924,20.969036 0.443358051,20.6457309 C0.280646186,20.5763453 0.118675847,20.3651165 0.0749258475,20.1897987 C0.00829449153,19.9226377 0.0388029661,19.6295233 0.0386970339,19.3475318 C0.0375317797,13.3829131 0.0378495763,7.41829449 0.0378495763,1.45367585 C0.0378495763,1.34784958 0.0364724576,1.24191737 0.0384851695,1.1360911 C0.0455826271,0.750286017 -0.00674788136,0.336302966 0.456917373,0.146896186 C0.906599576,-0.0367902542 1.72143008,0.124120763 2.01592161,0.467235169 C2.19918432,0.680900424 2.35490466,0.918294492 2.52079449,1.14668432 C6.25532839,6.28418432 9.98922669,11.4221081 13.7249258,16.5587606 C13.9285275,16.8386335 14.1472775,17.1074894 14.5611547,17.3544174 C14.5692055,16.9920233 14.5842479,16.6296292 14.5844597,16.2672352 C14.5859428,11.4319597 14.5855191,6.59679025 14.5855191,1.76151483 C14.5855191,1.51448093 14.5776801,1.26702331 14.5880614,1.02041314 C14.6214301,0.225709746 14.8580826,0.0317478814 15.6313877,0.101133475 C16.0488665,0.138739407 16.2883792,0.322743644 16.307447,0.75092161 C16.316875,0.962256356 16.3144386,1.17433263 16.3144386,1.3860911 C16.3147564,7.38598517 16.3192055,13.3858792 16.3057521,19.3856674 C16.3046928,19.8384216 16.5342479,20.4253919 15.8819174,20.6640572 C15.210625,20.9096081 14.5339301,20.6624682 14.0641208,20.0160699 C12.4045869,17.7325953 10.7508792,15.4448835 9.09526483,13.1586547 C6.88075212,10.1008157 4.66676907,7.04244703 2.45098517,3.98545551 C2.32810381,3.81606992 2.19018008,3.65748941 2.05914195,3.49382415 C1.97386653,3.50388771 1.88848517,3.51373941 1.80310381,3.52380297" id="Fill-4" fill="#171617" mask="url(#mask-4)"></path>
                    </g>
                    <g id="Group-9" transform="translate(87.288136, 0.141843)">
                        <mask id="mask-6" fill="white">
                            <use xlink:href="#path-5"></use>
                        </mask>
                        <g id="Clip-8"></g>
                        <path d="M1.81981992,1.7201589 L1.81981992,7.60893008 L1.81981992,8.88297669 C2.24831568,8.90638771 2.6184428,8.94335805 2.98856992,8.94409958 C5.35340042,8.94950212 7.71823093,8.94695975 10.0829555,8.94706568 C10.294714,8.94717161 10.5070021,8.9389089 10.718125,8.95034958 C11.5125106,8.99335805 11.696303,9.19897246 11.6394174,10.0069174 C11.627553,10.1751377 11.5476801,10.338697 11.4677013,10.6120021 L1.85763771,10.6120021 C1.7773411,13.3881674 1.84354873,16.0503496 1.81494703,18.8391208 C2.24217161,18.8629555 2.61166314,18.9009852 2.98104873,18.9016208 C5.73401483,18.9068114 8.48698093,18.904375 11.240053,18.9049047 C11.4870869,18.9049047 11.7365572,18.8877436 11.9805191,18.9164513 C12.5457733,18.9826589 12.7292479,19.2470657 12.7103919,19.8610487 C12.6937606,20.3930403 12.4353919,20.6193114 11.9094386,20.6007733 C11.4160064,20.5834004 10.9214089,20.5989725 10.4272352,20.5989725 C7.39195975,20.5991843 4.35647246,20.6018326 1.32119703,20.5974894 C0.144502119,20.5957945 0.120561441,20.565286 0.108485169,19.4307521 C0.107425847,19.3248199 0.108273305,19.2189936 0.108273305,19.1130614 C0.108273305,13.2541631 0.107955508,7.3951589 0.109014831,1.53636653 C0.109120763,1.21899364 0.0524470339,0.879375 0.14746822,0.591451271 C0.220349576,0.370582627 0.479883475,0.201514831 0.679459746,0.0377436441 C0.745773305,-0.0167055085 0.884332627,0.0112605932 0.989841102,0.0112605932 C4.44863347,0.010095339 7.90763771,0.00342161017 11.3664301,0.0157097458 C12.0955614,0.0183580508 12.3285064,0.302786017 12.280625,0.981811441 C12.2487394,1.4326589 12.0577436,1.71602754 11.5664301,1.71486229 C11.3193962,1.71422669 11.0723623,1.7198411 10.8253284,1.71994703 C8.21346398,1.72037076 5.60170551,1.7201589 2.9898411,1.7201589 L1.81981992,1.7201589 Z" id="Fill-7" fill="#171617" mask="url(#mask-6)"></path>
                    </g>
                    <path d="M43.4880508,20.7419386 C38.6551059,20.8745657 33.9997034,17.3889725 33.5904873,11.2774258 C33.4360381,8.97022246 33.8614619,6.78145127 35.0575424,4.7759428 C38.0953602,-0.317913136 44.6168644,-0.90657839 48.5115678,1.43590042 C48.9910169,1.72424788 49.4395339,2.08113347 49.8506568,2.46195975 C50.3544703,2.9285911 50.3332839,3.23876059 49.8680297,3.71111229 C49.4649576,4.12022246 49.2227966,4.12085805 48.6943008,3.68420551 C46.0572246,1.50507415 43.1076483,1.22445975 40.0701483,2.54003178 C36.9915466,3.87340042 35.5872034,6.47933263 35.2963136,9.73388771 C35.1855085,10.9743538 35.3298941,12.2004131 35.7094492,13.3905614 C37.8109322,19.9784852 45.6309534,20.4982945 49.0527754,16.9264725 C49.6444068,16.3089936 50.0079661,16.3496716 50.506589,16.9778496 C50.7401695,17.2721292 50.7748093,17.5666208 50.5176059,17.8322987 C50.1266102,18.2363242 49.7379449,18.6564513 49.2870975,18.9861123 C47.5767161,20.2366419 45.6377331,20.7799682 43.4880508,20.7419386" id="Fill-10" fill="#171617"></path>
                    <path d="M74.4893114,1.86200212 L74.4893114,3.13159958 C74.4893114,8.46253178 74.4893114,13.793464 74.4892055,19.1242903 C74.4892055,19.3714301 74.4976801,19.6189936 74.4866631,19.8656038 C74.4531886,20.6091419 74.3183369,20.7416631 73.6204555,20.7382733 C72.9255403,20.7349894 72.774375,20.6053284 72.7662182,19.851303 C72.7489513,18.2275742 72.7601801,16.6034216 72.7600742,14.9794809 C72.7599682,11.0254555 72.7600742,7.07143008 72.7600742,3.11740466 L72.7600742,1.91941737 C72.3017055,1.89643008 71.9582733,1.86581568 71.6148411,1.86433263 C70.1321081,1.85840042 68.6491631,1.8734428 67.1666419,1.85458686 C66.4997987,1.84611229 66.3365572,1.66253178 66.3199258,1.05638771 C66.3020233,0.398972458 66.4951377,0.166663136 67.1858157,0.158400424 C68.8096504,0.139014831 70.433697,0.151197034 72.0577436,0.151091102 C74.6702436,0.150985169 77.2826377,0.151302966 79.8951377,0.151408898 C80.2846504,0.151408898 80.6851801,0.115709746 80.8912182,0.566133475 C81.1983157,1.23784958 80.8348623,1.84229873 80.0684428,1.85426907 C78.6565784,1.87619703 77.2441843,1.86147246 75.8320021,1.86200212 C75.4460911,1.86210805 75.0601801,1.86200212 74.4893114,1.86200212" id="Fill-12" fill="#171617"></path>
                    <g id="Group-16" transform="translate(0.000000, 0.035911)">
                        <mask id="mask-8" fill="white">
                            <use xlink:href="#path-7"></use>
                        </mask>
                        <g id="Clip-15"></g>
                        <path d="M0.0755084746,20.5527119 C0.0494491525,20.1787712 0.00485169492,19.8336441 0.00453389831,19.4885169 C0.000296610169,13.4550424 0.00146186441,7.42167373 0.00156779661,1.38819915 C0.00156779661,1.24709746 -0.00383474576,1.1054661 0.00538135593,0.964894068 C0.0531567797,0.236080508 0.204957627,0.0909533898 0.897330508,0.101970339 C1.5607839,0.112669492 1.72201271,0.277711864 1.76300847,1.01213983 C1.77667373,1.25832627 1.76650424,1.50588983 1.76650424,1.75292373 C1.76661017,7.53936441 1.76650424,13.3258051 1.76650424,19.1123517 C1.76650424,19.218178 1.76724576,19.3240042 1.76639831,19.4298305 C1.75580508,20.7242161 1.60908898,20.8349153 0.0755084746,20.5527119" id="Fill-14" fill="#171617" mask="url(#mask-8)"></path>
                    </g>
                    <path d="M58.1415042,10.5264089 C58.1416102,7.41931144 58.1373729,4.31231992 58.1444703,1.20522246 C58.1464831,0.329798729 58.2859958,0.169311441 58.9556992,0.153633475 C59.6145975,0.138061441 59.8203178,0.332235169 59.868411,1.01560381 C59.8708475,1.05077331 59.8695763,1.08626059 59.8695763,1.12153602 C59.8697881,7.335625 59.8734958,13.549714 59.8658686,19.7639089 C59.8648093,20.6276801 59.605911,20.8219597 58.7758263,20.7397564 C58.3402331,20.696536 58.1440466,20.4832945 58.145,20.0594597 C58.1457415,19.7769386 58.1415042,19.4945233 58.1415042,19.2121081 C58.1412924,16.316875 58.1413983,13.4216419 58.1415042,10.5264089" id="Fill-17" fill="#171617"></path>
                </g>
            </g>
        </g>
    </g>
</svg>