<?xml version="1.0" encoding="utf-8"?>
<!-- Generator: Adobe Illustrator 23.1.0, SVG Export Plug-In . SVG Version: 6.00 Build 0)  -->
<svg version="1.1" id="Layer_1" xmlns="http://www.w3.org/2000/svg" xmlns:xlink="http://www.w3.org/1999/xlink" x="0px" y="0px"
	 viewBox="0 0 40 40" enable-background="new 0 0 40 40" xml:space="preserve">
<title>breeze</title>
<desc>Created with Sketch.</desc>
<g id="Page-1">
	<g id="wws3_Incite2050_02_Medical_Advancements_01" transform="translate(-774.000000, -976.000000)">
		<g id="Dial" transform="translate(605.000000, 957.000000)">
			<g id="breeze" transform="translate(173.000000, 21.000000)">
				<g id="Group-3" transform="translate(0.000000, 3.222222)">
					<g id="Clip-2">
					</g>
					<defs>
						<filter id="Adobe_OpacityMaskFilter" filterUnits="userSpaceOnUse" x="1" y="8.7" width="29.8" height="6.3">
							<feColorMatrix  type="matrix" values="1 0 0 0 0  0 1 0 0 0  0 0 1 0 0  0 0 0 1 0"/>
						</filter>
					</defs>
					<mask maskUnits="userSpaceOnUse" x="1" y="8.7" width="29.8" height="6.3" id="mask-3_1_">
						<g filter="url(#Adobe_OpacityMaskFilter)">
							<polygon id="path-2_1_" fill-rule="evenodd" clip-rule="evenodd" fill="#FFFFFF" points="1,8.7 30.8,8.7 30.8,15 1,15 
															"/>
						</g>
					</mask>
					<path id="Fill-1" mask="url(#mask-3_1_)" fill-rule="evenodd" clip-rule="evenodd" d="M27.6,8.7h-2.6c-0.3,0-0.6,0.3-0.6,0.6
						c0,0.3,0.3,0.6,0.6,0.6h2.6c1.1,0,1.9,0.9,1.9,1.9s-0.9,1.9-1.9,1.9h-26c-0.3,0-0.6,0.3-0.6,0.6S1.3,15,1.6,15h26
						c1.8,0,3.2-1.4,3.2-3.2S29.4,8.7,27.6,8.7"/>
				</g>
				<path id="Fill-4" fill-rule="evenodd" clip-rule="evenodd" d="M5.3,14.9h13.3c1.8,0,3.2-1.4,3.2-3.2s-1.4-3.2-3.2-3.2h-2.6
					c-0.3,0-0.6,0.3-0.6,0.6c0,0.3,0.3,0.6,0.6,0.6h2.6c1.1,0,1.9,0.9,1.9,1.9s-0.9,1.9-1.9,1.9H5.3c-0.3,0-0.6,0.3-0.6,0.6
					S4.9,14.9,5.3,14.9"/>
				<path id="Fill-6" fill-rule="evenodd" clip-rule="evenodd" d="M22.7,20.4H5.3c-0.3,0-0.6,0.3-0.6,0.6s0.3,0.6,0.6,0.6h17.4
					c1.1,0,1.9,0.9,1.9,1.9s-0.9,1.9-1.9,1.9h-2.6c-0.3,0-0.6,0.3-0.6,0.6s0.3,0.6,0.6,0.6h2.6c1.8,0,3.2-1.4,3.2-3.2
					S24.5,20.4,22.7,20.4"/>
				<path id="Fill-8" fill-rule="evenodd" clip-rule="evenodd" d="M15.3,23.4h-2.9c-0.3,0-0.6,0.3-0.6,0.6c0,0.3,0.3,0.6,0.6,0.6
					h2.9c0.3,0,0.6-0.3,0.6-0.6C15.9,23.7,15.7,23.4,15.3,23.4"/>
				<path id="Fill-10" fill-rule="evenodd" clip-rule="evenodd" d="M8.6,11.6h2.9c0.3,0,0.6-0.3,0.6-0.6c0-0.3-0.3-0.6-0.6-0.6H8.6
					c-0.3,0-0.6,0.3-0.6,0.6C8,11.3,8.3,11.6,8.6,11.6"/>
			</g>
		</g>
	</g>
</g>
</svg>
